# xmcd
#
# Track frame offsets: 
#        150
#        37649
#        67704
#        103478
#        133099
#        167365
#        181312
#        212827
#        230375
#        260969
#        296056
#        322893
#
# Disc length: 4516 seconds
#
# Revision: 0
# Processed by: cddbd v1.5.2PL0 Copyright (c) Steve Scherf et al.
# Submitted via: ExactAudioCopy v1.0b3
#
DISCID=a911a20c
DTITLE=Various Artist - Hands Up... Let´s Party! - CD 1
DYEAR=1900
DGENRE=
TTITLE0=Scotty Vs. Full Gainer - Everything I Do (I Do It For You) (Sc
TTITLE0=otty´s Club Mix)
TTITLE1=K.K. Project - I Like To Move It (Scotty's Rmx)
TTITLE2=Gigi D'Agostino - Bla Bla Bla (Scotty's Rmx 2004)
TTITLE3=Full Gainer Feat. Scotty - Right Here Waiting (Club Mix)
TTITLE4=Romazz Feat. Ken Laszlo - Tonight 2003 (Hot Steppaz Rmx)
TTITLE5=Man 2 Man Meets Man Parrish - Malestripper (POS One Rmx Edit)
TTITLE6=Scotty - Magic Melody (Delta 3000 Rmx)
TTITLE7=Den Harrow - Holiday Night (Scotty's Radio Mix)
TTITLE8=Scotty - Don't Cry Tonight (Dix Vs. Full Gainer Rmx)
TTITLE9=Full Gainer - Vamoz A La Playa (Club Mix)
TTITLE10=Ryan Paris - Dolce Vita 2003 (Scotty's Club Mix)
TTITLE11=Ice and Cream Vs. Spagna - Easy Lady 2004 (Scotty's Radio Mix)
EXTD=
EXTT0=
EXTT1=
EXTT2=
EXTT3=
EXTT4=
EXTT5=
EXTT6=
EXTT7=
EXTT8=
EXTT9=
EXTT10=
EXTT11=
PLAYORDER=
